# xmcd CD database file
#
# Track frame offsets:
#	150
#	14962
#	26537
#	37852
#	46257
#	58587
#	74115
#	90705
#	103645
#	109017
#	121777
#	136900
#
# Disc length: 1984 seconds
#
# Revision: 0
# Processed by: cddbd v1.5.1PL0 Copyright (c) Steve Scherf et al.
# Submitted via: CDex 1.51
#
DISCID=a107be0c
DTITLE=Various Artist - ニルスのふしぎな旅 楽しいうたと音楽集
DYEAR=1999
DGENRE=Anime
TTITLE0=加橋かつみ - ニルスのふしぎな旅
TTITLE1=山脇唯 - ぼくはキャロット
TTITLE2=チト河内(作・編曲) - 鳥にのって(空とぶテーマ)
TTITLE3=松金よね子 - わたしは歌う(スイリーのテーマ)
TTITLE4=チト河内(作・編曲) - 北をめざして(ガン隊長アッカのテーマ)
TTITLE5=加橋かつみ - いつまでも友だち
TTITLE6=加橋かつみ - ワンダフル・アドベンチャー
TTITLE7=小山茉美 - わんぱくニルス
TTITLE8=チト河内(作・編曲) - ねずみの行進
TTITLE9=富山敬 - 腹ペコ・レックス
TTITLE10=加橋かつみ - ニルスのふしぎな旅(英語) The song to Nils
TTITLE11=チト河内(作・編曲) - つるの舞踏会
EXTD=YEAR: 1999
EXTT0=
EXTT1=
EXTT2=
EXTT3=
EXTT4=
EXTT5=
EXTT6=
EXTT7=
EXTT8=
EXTT9=
EXTT10=
EXTT11=
PLAYORDER=
